<?xml version="1.0" encoding="UTF-8"?>
<!DOCTYPE svg PUBLIC "-//W3C//DTD SVG 1.1//EN" "http://www.w3.org/Graphics/SVG/1.1/DTD/svg11.dtd">
<!-- Creator: CorelDRAW X7 -->
<svg xmlns="http://www.w3.org/2000/svg" xml:space="preserve" width="512px" height="512px" version="1.1" style="shape-rendering:geometricPrecision; text-rendering:geometricPrecision; image-rendering:optimizeQuality; fill-rule:evenodd; clip-rule:evenodd"
viewBox="0 0 509 509"
 xmlns:xlink="http://www.w3.org/1999/xlink">
 <defs>
  <style type="text/css">
   <![CDATA[
    .fil2 {fill:#FEFEFE}
    .fil0 {fill:#181E2B}
    .fil1 {fill:#FB5C4A}
   ]]>
  </style>
 </defs>
 <g id="Ebene_x0020_1">
  <metadata id="CorelCorpID_0Corel-Layer"/>
  <g>
   <path class="fil0" d="M254 0c-140,0 -254,114 -254,254 0,71 29,135 75,181 0,0 -1,-1 -1,-1l61 -78 9 -1 34 -40 15 15 26 -65 15 -12 8 -21 10 -6 3 32 16 7 -28 34 16 25 -9 44 10 16 -89 111 83 -495zm-176 438c1,0 1,1 2,1 -1,0 -1,-1 -2,-1zm4 4c1,0 2,1 3,2 -1,-1 -2,-2 -3,-2zm5 4c1,0 1,1 2,2 -1,-1 -1,-2 -2,-2zm4 3c1,1 2,2 3,3 -1,-1 -2,-2 -3,-3zm3 3c16,13 33,23 51,32l0 0 64 -88 -63 40 35 -51 -30 19 5 -28 -59 72 -3 4zm55 34c0,0 1,0 2,1 -1,-1 -2,-1 -2,-1zm5 2c1,1 2,1 3,1 -1,0 -2,0 -3,-1zm6 3c1,0 2,0 3,1 -1,-1 -2,-1 -3,-1zm5 2c1,0 3,1 4,1 -1,0 -3,-1 -4,-1zm6 2c26,9 54,14 83,14 8,0 15,-1 22,-1 -1,0 -3,0 -4,0l34 -46 71 -114 21 -28 -18 57 18 -10 -12 46 9 13 -22 53c81,-42 136,-127 136,-225 0,-140 -114,-254 -255,-254l-83 495zm107 13c2,0 3,-1 4,-1 -1,0 -2,1 -4,1zm7 -1c1,0 2,0 3,0 -1,0 -2,0 -3,0zm7 -1c26,-4 52,-12 75,-23 -13,6 -26,11 -40,15l21 -36 -56 44zm76 -24c1,-1 3,-1 5,-2 -2,1 -4,1 -5,2z"/>
  </g>
  <g>
   <path class="fil1" d="M255 118c76,0 139,61 139,136 0,40 -17,75 -44,100l-95 -236zm94 237l0 0 0 0c0,0 0,-1 1,-1 -1,0 -1,1 -1,1zm-2 1l0 0 0 0 0 0 0 0zm-1 1l0 1 -1 0 1 -1 0 0zm-2 2l0 0 0 0c0,0 1,-1 1,-1l-1 1zm-1 1l0 0 0 0 1 -1 -1 1zm3 -3c1,0 1,-1 1,-1l-1 1zm1 -1c1,0 1,-1 1,-1 0,0 0,1 -1,1zm3 -2l-98 -128 0 0 0 0 3 32 16 7 -28 34 16 25 -9 44 10 16 -6 7c-76,-1 -138,-62 -138,-137 0,-75 62,-136 139,-136l95 236zm-9 7l0 0 0 0zm0 0l0 0 0 0zm0 0c0,0 0,1 -1,1 1,0 1,-1 1,-1zm-1 1l0 0 0 0zm0 0l0 0 0 0zm0 0l0 0 0 0zm0 0l0 0 0 0zm0 0l0 0 0 0zm0 0l0 0 0 0zm0 0l0 0 0 0zm0 0l0 0 0 0zm0 0l0 0 0 0zm0 0l0 0 0 0zm0 0l0 0 0 0zm0 0l0 0 0 0zm0 0l0 0 0 0zm0 0l0 0 0 0zm0 0l0 0 0 0zm0 0l0 0 0 0zm0 0l0 0 0 0zm0 0l0 0 0 0zm0 0l-1 1 1 -1zm-1 1l0 0 0 0zm0 0l0 0 0 0zm0 0l0 0 0 0zm0 0l0 0 0 0zm0 0l0 0 0 0zm0 0l0 0 0 0zm0 0l0 0 0 0zm0 0l0 0 0 0zm0 0l0 0 0 0zm0 0l0 0 0 0zm0 0l0 0 0 0zm-3 2c0,0 0,0 -1,1l1 -1zm-1 1l0 0 0 0zm0 0l0 0 0 0zm0 0l0 0 0 0zm0 0l0 0 0 0zm0 0l0 0 0 0zm0 0l0 0 0 0zm0 0l0 0 0 0zm0 0l0 0 0 0zm0 0l0 0 0 0zm0 0l0 0 0 0zm0 0l0 0 0 0zm0 0l0 0 0 0zm0 0l0 0 0 0zm0 0l0 0 0 0zm0 0l0 0 0 0zm0 0l0 0 0 0zm0 0l0 0 0 0zm0 0l-1 0 1 0zm-1 0l0 0 0 0zm0 0l0 0 0 0zm0 0l0 0 0 0zm0 0l0 0 0 0zm0 0l0 0 0 0zm0 0l0 0 0 0zm0 0l0 1 0 -1zm0 1l0 0 0 0zm-1 0l0 0 0 0zm0 0l0 0 0 0zm0 0l0 0 0 0zm0 0l0 0 0 0zm0 0l0 0 0 0zm0 0l-1 1 1 -1zm-1 1l0 0 0 0zm0 0l0 0 0 0zm0 0l0 0 0 0zm0 0l0 0 0 0zm0 0l0 0 0 0zm0 0l0 0 0 0zm0 0l0 0 0 0zm0 0l0 0 0 0zm0 0l0 0 0 0zm0 0l0 0 0 0zm0 0l0 0 0 0zm0 0l0 0 0 0zm0 0l0 0 0 0zm0 0l0 0 0 0zm0 0l0 0 0 0zm0 0l0 0 0 0zm0 0l0 0 0 0zm0 0l0 0 0 0zm0 0l-1 0 1 0zm-1 0l0 0 0 0zm0 0l0 0 0 0zm0 0l0 0 0 0zm0 0l0 0 0 0zm0 0l0 0 0 0zm0 0l0 0 0 0zm-3 2l0 0 0 0zm0 0l0 0 0 0zm0 0l0 1 0 -1zm0 1l0 0 0 0zm0 0l0 0 0 0zm0 0l0 0 0 0zm0 0l0 0 0 0zm0 0l0 0 0 0zm0 0l0 0 0 0zm0 0l0 0 0 0zm0 0l0 0 0 0zm0 0l-1 0 1 0zm-1 0l0 0 0 0zm0 0l0 0 0 0zm0 0l0 0 0 0zm0 0l0 0 0 0zm0 0l0 0 0 0zm0 0l0 0 0 0zm0 0l0 0 0 0zm0 0l0 0 0 0zm0 0l0 0c0,0 0,0 0,0zm0 0l0 0 0 0zm0 0l0 0 0 0zm0 0l0 0 0 0zm0 0l0 0 0 0zm0 0l-1 0 1 0zm-1 0l0 0 0 0zm0 0l0 0 0 0zm0 0l0 0 0 0zm0 0l0 0 0 0zm0 0l0 0 0 0zm0 0l0 1 0 -1zm0 1l0 0 0 0zm0 0l0 0 0 0zm0 0l0 0 0 0zm0 0l0 0 0 0zm0 0l0 0 0 0zm0 0l0 0 0 0zm0 0l0 0 0 0zm0 0l0 0 0 0zm0 0l0 0 0 0zm-1 0l0 0 0 0 0 0zm0 0l0 0 0 0 0 0zm-1 1l0 0 0 0 0 0zm0 0l0 0 0 0zm0 0l0 0 0 0 0 0 0 0zm-1 0l0 0 0 0 0 0 0 0 0 0 0 0 0 0zm0 0l0 0 1 0 0 0 0 0 0 0 -1 0zm1 0l0 0 0 0 0 0zm0 0l0 0 0 0 0 0zm0 0l0 0 0 0 0 0zm-3 1l0 0 0 0 0 0zm0 0l0 0 0 0zm0 0l0 0 0 0zm0 0l0 0 0 0zm0 0l0 0 0 0zm0 0l0 0 0 0zm0 0l0 0 0 0zm0 0l0 0 0 0zm0 0l0 1 0 -1zm0 1l0 0 0 0zm0 0l0 0 0 0zm0 0l0 0 0 0zm0 0l-1 0 1 0zm-1 0l0 0 0 0zm0 0l0 0 0 0zm0 0l0 0 0 0zm0 0l0 0 0 0zm0 0l0 0 0 0zm0 0l0 0 0 0zm0 0l0 0 0 0zm1 -1l0 0 0 0 0 0zm0 0l0 0 0 0 0 0zm0 0l1 0 0 0 -1 0zm1 0l0 0 0 0 0 0zm0 0l0 0 0 0 0 0zm-4 2l0 0 0 0zm0 0l0 0 0 0zm0 0l0 0 0 0zm0 0l0 0 0 0zm0 0l0 0 0 0zm0 0l0 0 0 0zm0 0c0,0 0,0 -1,0l1 0zm-1 0l0 0 0 0zm0 0l0 0 0 0zm0 0l0 0 0 0zm0 0l0 0 0 0zm-8 4l0 0 0 0zm0 0l0 0 0 0zm0 0l0 0 0 0zm0 0l0 0 0 0zm0 0l0 0c0,0 0,0 0,0zm0 0l0 0 0 0zm0 0l0 0 0 0zm0 0l0 0 0 0zm0 0l-1 0 1 0zm-1 0l0 0 0 0zm0 0l0 0 0 0zm0 0l0 0 0 0zm0 0l0 0 0 0zm0 0l0 0 0 0zm0 0l0 0 0 0zm-2 1l0 0 0 0zm-1 1l0 0 0 0 0 0zm0 0l0 0 0 0zm0 0l0 0 0 0zm0 0l0 0 0 0zm0 0l0 0 0 0z"/>
  </g>
  <path class="fil2" d="M252 226l3 32 16 7 -28 34 16 25 -9 44 10 16 -89 111c-9,-3 -18,-7 -26,-11l64 -88 -63 40 35 -51 -30 19 5 -28 -59 72 -3 4c-7,-6 -14,-12 -20,-18l61 -78 9 -1 34 -40 15 15 26 -65 15 -12 8 -21 10 -6z"/>
  <path class="fil2" d="M398 320l-18 57 18 -10 -12 46 9 13 -22 53c-14,8 -30,14 -46,19l21 -36 -56 44c-7,1 -13,2 -20,2l34 -46 71 -114 21 -28z"/>
 </g>
</svg>
