<?xml version="1.0" encoding="UTF-8"?>
<svg version="1.1" xmlns="http://www.w3.org/2000/svg" width="954" height="954">
<path d="M0 0 C1.27422318 -0.00705963 2.54844635 -0.01411926 3.86128235 -0.02139282 C7.95179824 -0.04092116 12.04225436 -0.04608478 16.1328125 -0.046875 C16.82975346 -0.04716957 17.52669441 -0.04746414 18.24475479 -0.04776764 C38.72110117 -0.04916652 58.96842512 0.07934374 79.2578125 3.203125 C79.93428833 3.3049408 80.61076416 3.40675659 81.30773926 3.51165771 C111.34211858 8.03690989 140.37025449 14.72392183 169.2578125 24.203125 C170.18287598 24.50331543 171.10793945 24.80350586 172.06103516 25.11279297 C217.26292639 39.88121557 262.05568951 62.53776137 299.55419922 91.88037109 C302.19300976 93.92924978 304.88412769 95.9042891 307.5703125 97.890625 C313.26891009 102.17032548 318.79547865 106.62657502 324.2578125 111.203125 C325.03415039 111.84991211 325.03415039 111.84991211 325.82617188 112.50976562 C341.14872515 125.30601979 356.39533205 138.88182599 369.39453125 154.0625 C371.54668027 156.53498986 373.77761969 158.92583857 376.0078125 161.328125 C381.2319934 167.06370915 385.99781782 173.08857465 390.72900391 179.23291016 C392.35123818 181.32352508 393.99573778 183.39512137 395.64453125 185.46484375 C403.76421068 195.69737149 411.22041998 206.20090764 418.2578125 217.203125 C419.02061523 218.38285889 419.02061523 218.38285889 419.79882812 219.58642578 C465.10038503 289.8658959 494.15010487 375.84659396 494.4609375 459.9453125 C494.46799713 461.21953568 494.47505676 462.49375885 494.48233032 463.80659485 C494.50185866 467.89711074 494.50702228 471.98756686 494.5078125 476.078125 C494.50825436 477.12353643 494.50825436 477.12353643 494.50870514 478.19006729 C494.51010402 498.66641367 494.38159376 518.91373762 491.2578125 539.203125 C491.10508881 540.21783875 491.10508881 540.21783875 490.94927979 541.25305176 C486.42402761 571.28743108 479.73701567 600.31556699 470.2578125 629.203125 C469.80752686 630.59072021 469.80752686 630.59072021 469.34814453 632.00634766 C454.57972193 677.20823889 431.92317613 722.00100201 402.58056641 759.49951172 C400.53168772 762.13832226 398.5566484 764.82944019 396.5703125 767.515625 C392.29061202 773.21422259 387.83436248 778.74079115 383.2578125 784.203125 C382.82662109 784.72068359 382.39542969 785.23824219 381.95117188 785.77148438 C369.15491771 801.09403765 355.57911151 816.34064455 340.3984375 829.33984375 C337.92594764 831.49199277 335.53509893 833.72293219 333.1328125 835.953125 C327.39722835 841.1773059 321.37236285 845.94313032 315.22802734 850.67431641 C313.13741242 852.29655068 311.06581613 853.94105028 308.99609375 855.58984375 C298.76356601 863.70952318 288.26002986 871.16573248 277.2578125 878.203125 C276.07807861 878.96592773 276.07807861 878.96592773 274.87451172 879.74414062 C204.5950416 925.04569753 118.61434354 954.09541737 34.515625 954.40625 C33.24140182 954.41330963 31.96717865 954.42036926 30.65434265 954.42764282 C26.56382676 954.44717116 22.47337064 954.45233478 18.3828125 954.453125 C17.68587154 954.45341957 16.98893059 954.45371414 16.27087021 954.45401764 C-4.20547617 954.45541652 -24.45280012 954.32690626 -44.7421875 951.203125 C-45.75690125 951.05040131 -45.75690125 951.05040131 -46.79211426 950.89459229 C-76.82649358 946.36934011 -105.85462949 939.68232817 -134.7421875 930.203125 C-136.12978271 929.75283936 -136.12978271 929.75283936 -137.54541016 929.29345703 C-182.74730139 914.52503443 -227.54006451 891.86848863 -265.03857422 862.52587891 C-267.67738476 860.47700022 -270.36850269 858.5019609 -273.0546875 856.515625 C-278.75328509 852.23592452 -284.27985365 847.77967498 -289.7421875 843.203125 C-290.25974609 842.77193359 -290.77730469 842.34074219 -291.31054688 841.89648438 C-306.63310015 829.10023021 -321.87970705 815.52442401 -334.87890625 800.34375 C-337.03105527 797.87126014 -339.26199469 795.48041143 -341.4921875 793.078125 C-346.7163684 787.34254085 -351.48219282 781.31767535 -356.21337891 775.17333984 C-357.83561318 773.08272492 -359.48011278 771.01112863 -361.12890625 768.94140625 C-369.24858568 758.70887851 -376.70479498 748.20534236 -383.7421875 737.203125 C-384.25072266 736.41663574 -384.75925781 735.63014648 -385.28320312 734.81982422 C-430.58476003 664.5403541 -459.63447987 578.55965604 -459.9453125 494.4609375 C-459.95237213 493.18671432 -459.95943176 491.91249115 -459.96670532 490.59965515 C-459.98623366 486.50913926 -459.99139728 482.41868314 -459.9921875 478.328125 C-459.99248207 477.63118404 -459.99277664 476.93424309 -459.99308014 476.21618271 C-459.99447902 455.73983633 -459.86596876 435.49251238 -456.7421875 415.203125 C-456.58946381 414.18841125 -456.58946381 414.18841125 -456.43365479 413.15319824 C-451.90840261 383.11881892 -445.22139067 354.09068301 -435.7421875 325.203125 C-435.44199707 324.27806152 -435.14180664 323.35299805 -434.83251953 322.39990234 C-420.06409693 277.19801111 -397.40755113 232.40524799 -368.06494141 194.90673828 C-366.01606272 192.26792774 -364.0410234 189.57680981 -362.0546875 186.890625 C-357.77498702 181.19202741 -353.31873748 175.66545885 -348.7421875 170.203125 C-348.31099609 169.68556641 -347.87980469 169.16800781 -347.43554688 168.63476562 C-334.63929271 153.31221235 -321.06348651 138.06560545 -305.8828125 125.06640625 C-303.41032264 122.91425723 -301.01947393 120.68331781 -298.6171875 118.453125 C-292.88160335 113.2289441 -286.85673785 108.46311968 -280.71240234 103.73193359 C-278.62178742 102.10969932 -276.55019113 100.46519972 -274.48046875 98.81640625 C-264.24794101 90.69672682 -253.74440486 83.24051752 -242.7421875 76.203125 C-241.95569824 75.69458984 -241.16920898 75.18605469 -240.35888672 74.66210938 C-170.0794166 29.36055247 -84.09871854 0.31083263 0 0 Z " fill="#181E2B" transform="translate(459.7421875,-0.203125)"/>
<path d="M0 0 C0.8264502 0.10683105 1.65290039 0.21366211 2.50439453 0.32373047 C28.75588921 3.89308976 54.760543 12.60419597 78.12353516 25.00878906 C80.00387992 26.0020495 81.89633811 26.96794687 83.79296875 27.9296875 C97.44809109 34.92747465 109.90711818 43.57392568 122 53 C122.87785156 53.68320312 123.75570313 54.36640625 124.66015625 55.0703125 C176.51963566 96.46624452 210.54131599 157.52245503 218.875 223.375 C225.20146228 280.96350319 213.16049439 340.41816226 181 389 C180.60039063 389.60908203 180.20078125 390.21816406 179.7890625 390.84570312 C172.75190523 401.50770482 164.73011618 411.22555849 156.125 420.65234375 C154.16469516 422.81804818 152.26680662 425.02459355 150.375 427.25 C147.20397501 430.90373372 143.74535968 433.94256352 140 437 C135.52532522 435.4631374 133.39030322 431.86955855 130.75 428.1875 C129.68595137 426.73620469 128.62078782 425.28572634 127.5546875 423.8359375 C126.98459961 423.05702148 126.41451172 422.27810547 125.82714844 421.47558594 C122.56040254 417.04950317 119.21474258 412.68360477 115.875 408.3125 C115.18720459 407.41072021 114.49940918 406.50894043 113.79077148 405.57983398 C109.36306821 399.77653357 104.92008885 393.98530665 100.46484375 388.203125 C95.89558869 382.26999675 91.35169422 376.31739637 86.80664062 370.36572266 C85.57123173 368.74800479 84.33554149 367.13050175 83.09960938 365.51318359 C75.81458695 355.97837483 68.55695356 346.42523982 61.375 336.8125 C55.47853026 328.92431324 49.46803572 321.13261379 43.40625 313.37109375 C35.34135215 303.03909419 27.43043375 292.5917742 19.58935547 282.08935547 C15.20882796 276.24052676 10.71931573 270.47979917 6.2199707 264.72216797 C1.8279246 259.09146413 -2.47849862 253.40209739 -6.7487793 247.67871094 C-9.73701692 243.67581611 -12.75684751 239.70170874 -15.8125 235.75 C-22.04872941 227.67423452 -28.14836351 219.49607019 -34.25976562 211.32568359 C-36.83688547 207.88156973 -39.4182028 204.44060832 -42 201 C-42.24718892 212.9714969 -41.46918185 224.7613596 -40.5 236.6875 C-40.28442174 239.39862566 -40.07049965 242.1098721 -39.85803223 244.82124329 C-39.7266242 246.49197548 -39.59318276 248.16254938 -39.45739746 249.83293152 C-39.18540479 253.23888265 -39 256.580487 -39 260 C-37.9171875 260.24492187 -36.834375 260.48984375 -35.71875 260.7421875 C-30.16758033 262.12997992 -24.85834778 264.13495745 -19.5 266.125 C-18.48679687 266.49753906 -17.47359375 266.87007813 -16.4296875 267.25390625 C-13.95174496 268.16560209 -11.47525538 269.08103909 -9 270 C-13.01163111 278.29996385 -19.91424345 285.11990034 -25.86108398 292.11108398 C-28.77891522 295.54397456 -31.65628068 299.00512491 -34.5 302.5 C-37.78825468 306.53985574 -41.12800121 310.53023249 -44.5 314.5 C-45.88179878 316.13213167 -47.26288516 317.7648622 -48.64355469 319.39794922 C-49.54355469 320.46090818 -50.44523348 321.52244812 -51.34863281 322.58251953 C-52.61410981 324.0701831 -53.86976714 325.56618273 -55.125 327.0625 C-55.84945313 327.91972656 -56.57390625 328.77695312 -57.3203125 329.66015625 C-58.99613501 331.99461598 -59.66217369 333.18899951 -60 336 C-59.17300335 338.10446701 -59.17300335 338.10446701 -57.74609375 340.17578125 C-57.22740723 340.99256348 -56.7087207 341.8093457 -56.17431641 342.65087891 C-55.60116699 343.52921387 -55.02801758 344.40754883 -54.4375 345.3125 C-53.24603253 347.20178431 -52.05462861 349.0911087 -50.86328125 350.98046875 C-48.92362922 354.01854389 -46.97012954 357.04542602 -44.98974609 360.05712891 C-43.01187522 363.06551136 -41.06796366 366.09399664 -39.125 369.125 C-38.50036865 370.04708252 -37.8757373 370.96916504 -37.23217773 371.91918945 C-36.66313721 372.81468506 -36.09409668 373.71018066 -35.5078125 374.6328125 C-34.99879395 375.40512207 -34.48977539 376.17743164 -33.96533203 376.97314453 C-31.51678819 384.65069803 -34.39602669 393.88607735 -35.92578125 401.6171875 C-36.11464401 402.59503204 -36.30350677 403.57287659 -36.49809265 404.58035278 C-37.09782303 407.67957885 -37.70494141 410.7773001 -38.3125 413.875 C-38.70818851 415.91136004 -39.10337412 417.94781786 -39.49804688 419.984375 C-39.89062126 422.00781323 -40.28319937 424.03125073 -40.67578125 426.0546875 C-40.96511032 427.54654572 -40.96511032 427.54654572 -41.26028442 429.06854248 C-42.22359134 434.02888362 -43.19567632 438.9871728 -44.18505859 443.94238281 C-44.55447245 445.81833762 -44.92378056 447.69431326 -45.29296875 449.5703125 C-45.46564774 450.42011688 -45.63832672 451.26992126 -45.8162384 452.14547729 C-47.2851886 459.66871743 -48.04493753 465.21015559 -43.7890625 471.9765625 C-43.12132812 473.059375 -42.45359375 474.1421875 -41.765625 475.2578125 C-41.05921875 476.36898438 -40.3528125 477.48015625 -39.625 478.625 C-38.23912535 480.84444502 -36.85619489 483.06573184 -35.4765625 485.2890625 C-34.85861816 486.26568848 -34.24067383 487.24231445 -33.60400391 488.24853516 C-32.12504938 490.78549368 -31.00567022 493.24648372 -30 496 C-30.83402344 496.88300781 -31.66804688 497.76601563 -32.52734375 498.67578125 C-38.48635402 505.01872775 -44.24033183 511.41437841 -49.68359375 518.2109375 C-53.35986497 522.63734163 -57.30426372 526.80801112 -61.2265625 531.015625 C-65.51981799 535.62148226 -69.62329422 540.3810007 -73.703125 545.17578125 C-79.52813967 552.01326382 -85.4450487 558.7329592 -91.54296875 565.328125 C-94.16530261 568.17975673 -96.71988319 571.08130071 -99.2578125 574.0078125 C-101.31500399 576.36020635 -103.40596915 578.68034966 -105.5 581 C-111.94042549 588.14400138 -118.22724553 595.41215362 -124.47387695 602.72558594 C-125.19837036 603.5729834 -125.19837036 603.5729834 -125.9375 604.4375 C-126.4317749 605.01588623 -126.9260498 605.59427246 -127.43530273 606.19018555 C-128.51587016 607.44002894 -129.60726855 608.68056107 -130.70727539 609.91333008 C-134.92128672 614.64251026 -138.731286 619.55359407 -142.4375 624.6875 C-147.55910933 631.71469523 -152.76945031 638.66358639 -158.0625 645.5625 C-163.58824478 652.77416619 -168.97672896 660.06560646 -174.2644043 667.453125 C-179.99756777 675.43901725 -185.98034088 683.22889972 -192 691 C-192.78246094 692.010625 -193.56492187 693.02125 -194.37109375 694.0625 C-195.91034384 696.04463291 -197.4536365 698.02342193 -199 700 C-206.96183963 698.55393938 -214.05686259 695.75611084 -221.5 692.625 C-222.13149963 692.36089325 -222.76299927 692.0967865 -223.41363525 691.82467651 C-258.65189289 677.06554113 -293.12923069 658.92857431 -323.29638672 635.32275391 C-325.93519726 633.27387522 -328.62631519 631.2988359 -331.3125 629.3125 C-337.01105401 625.03283225 -342.53828091 620.57723017 -348 616 C-348.52287598 615.56349121 -349.04575195 615.12698242 -349.58447266 614.67724609 C-359.39025692 606.46957016 -368.7390095 597.81480882 -378 589 C-375.59877745 584.7132537 -372.72228935 581.03803005 -369.625 577.25 C-365.19432296 571.77840525 -360.87204079 566.24012788 -356.625 560.625 C-350.96830993 553.16378471 -345.0605407 545.93482101 -339.08203125 538.73046875 C-336.24102351 535.30377372 -333.47567035 531.82814622 -330.765625 528.296875 C-322.98587215 518.17631156 -315.04309533 508.17175458 -306.96875 498.28515625 C-301.06746244 491.05577318 -295.2639041 483.78087912 -289.60546875 476.359375 C-286.03971022 471.72402837 -282.32280195 467.21058634 -278.62304688 462.68212891 C-275.20744341 458.49832072 -271.84033755 454.28544211 -268.5625 449.9921875 C-268.046875 449.33476563 -267.53125 448.67734375 -267 448 C-266.28070313 446.95199219 -265.56140625 445.90398437 -264.8203125 444.82421875 C-261.29744637 441.2964733 -258.59417967 441.21438931 -253.875 440.9375 C-246.74321008 440.15045906 -242.93825083 438.10805426 -238.4375 432.5 C-234.99176771 428.25230467 -234.99176771 428.25230467 -234 423 C-235.5096312 421.06077435 -237.04482651 419.25813676 -238.6875 417.4375 C-264.69823456 387.5496535 -283.17741242 351.5406423 -292.49316406 313.08203125 C-292.93444722 311.26928425 -293.3988246 309.46218984 -293.8671875 307.65625 C-298.10799348 290.69302609 -299.48193599 273.70579126 -299.33618164 256.26904297 C-299.31240342 253.23768729 -299.31567875 250.20720807 -299.32226562 247.17578125 C-299.30586509 235.63958371 -298.69668984 224.41126898 -297 213 C-296.79709351 211.58340088 -296.79709351 211.58340088 -296.59008789 210.13818359 C-290.23551146 168.60634152 -271.66922312 129.94445747 -246 97 C-245.32839844 96.13375 -244.65679687 95.2675 -243.96484375 94.375 C-234.40533589 82.3675434 -223.78820268 70.8410442 -212 61 C-211.47535156 60.55769043 -210.95070313 60.11538086 -210.41015625 59.65966797 C-190.03540267 42.57097867 -167.29034758 28.75462775 -143 18 C-142.34821777 17.71141113 -141.69643555 17.42282227 -141.02490234 17.12548828 C-116.97717469 6.64768531 -90.93179773 1.16950287 -65 -2 C-64.28312012 -2.09571289 -63.56624023 -2.19142578 -62.82763672 -2.29003906 C-42.0058861 -4.90741614 -20.69002841 -2.7063456 0 0 Z " fill="#FA5B49" transform="translate(518,227)"/>
<path d="M0 0 C1.48958005 11.69769703 2.58266751 23.39168162 3.43261719 35.15258789 C3.62809525 37.85529538 3.82926867 40.55753703 4.03125 43.25976562 C4.15917767 44.99216364 4.28679391 46.72458469 4.4140625 48.45703125 C4.47340973 49.25800735 4.53275696 50.05898346 4.59390259 50.88423157 C4.83730315 54.26986795 5 57.60342436 5 61 C6.0828125 61.24492187 7.165625 61.48984375 8.28125 61.7421875 C13.83241967 63.12997992 19.14165222 65.13495745 24.5 67.125 C25.51320313 67.49753906 26.52640625 67.87007813 27.5703125 68.25390625 C30.04825504 69.16560209 32.52474462 70.08103909 35 71 C30.98836889 79.29996385 24.08575655 86.11990034 18.13891602 93.11108398 C15.22108478 96.54397456 12.34371932 100.00512491 9.5 103.5 C6.21174532 107.53985574 2.87199879 111.53023249 -0.5 115.5 C-1.88179878 117.13213167 -3.26288516 118.7648622 -4.64355469 120.39794922 C-5.54355469 121.46090818 -6.44523348 122.52244812 -7.34863281 123.58251953 C-8.61410981 125.0701831 -9.86976714 126.56618273 -11.125 128.0625 C-11.84945313 128.91972656 -12.57390625 129.77695312 -13.3203125 130.66015625 C-14.99613501 132.99461598 -15.66217369 134.18899951 -16 137 C-15.17300335 139.10446701 -15.17300335 139.10446701 -13.74609375 141.17578125 C-12.96806396 142.40095459 -12.96806396 142.40095459 -12.17431641 143.65087891 C-11.60116699 144.52921387 -11.02801758 145.40754883 -10.4375 146.3125 C-9.24603253 148.20178431 -8.05462861 150.0911087 -6.86328125 151.98046875 C-4.92362922 155.01854389 -2.97012954 158.04542602 -0.98974609 161.05712891 C0.98812478 164.06551136 2.93203634 167.09399664 4.875 170.125 C5.49963135 171.04708252 6.1242627 171.96916504 6.76782227 172.91918945 C7.33686279 173.81468506 7.90590332 174.71018066 8.4921875 175.6328125 C9.25571533 176.79127686 9.25571533 176.79127686 10.03466797 177.97314453 C12.48321181 185.65069803 9.60397331 194.88607735 8.07421875 202.6171875 C7.88535599 203.59503204 7.69649323 204.57287659 7.50190735 205.58035278 C6.90217697 208.67957885 6.29505859 211.7773001 5.6875 214.875 C5.29181149 216.91136004 4.89662588 218.94781786 4.50195312 220.984375 C4.10937874 223.00781323 3.71680063 225.03125073 3.32421875 227.0546875 C3.1313327 228.04925964 2.93844666 229.04383179 2.73971558 230.06854248 C1.77640866 235.02888362 0.80432368 239.9871728 -0.18505859 244.94238281 C-0.55447245 246.81833762 -0.92378056 248.69431326 -1.29296875 250.5703125 C-1.46564774 251.42011688 -1.63832672 252.26992126 -1.8162384 253.14547729 C-3.2851886 260.66871743 -4.04493753 266.21015559 0.2109375 272.9765625 C0.87867188 274.059375 1.54640625 275.1421875 2.234375 276.2578125 C2.94078125 277.36898438 3.6471875 278.48015625 4.375 279.625 C5.76087465 281.84444502 7.14380511 284.06573184 8.5234375 286.2890625 C9.14138184 287.26568848 9.75932617 288.24231445 10.39599609 289.24853516 C11.87495062 291.78549368 12.99432978 294.24648372 14 297 C13.16597656 297.88300781 12.33195312 298.76601563 11.47265625 299.67578125 C5.51364598 306.01872775 -0.24033183 312.41437841 -5.68359375 319.2109375 C-9.35986497 323.63734163 -13.30426372 327.80801112 -17.2265625 332.015625 C-21.51981799 336.62148226 -25.62329422 341.3810007 -29.703125 346.17578125 C-35.52813967 353.01326382 -41.4450487 359.7329592 -47.54296875 366.328125 C-50.16530261 369.17975673 -52.71988319 372.08130071 -55.2578125 375.0078125 C-57.31500399 377.36020635 -59.40596915 379.68034966 -61.5 382 C-67.94042549 389.14400138 -74.22724553 396.41215362 -80.47387695 403.72558594 C-81.19837036 404.5729834 -81.19837036 404.5729834 -81.9375 405.4375 C-82.4317749 406.01588623 -82.9260498 406.59427246 -83.43530273 407.19018555 C-84.51587016 408.44002894 -85.60726855 409.68056107 -86.70727539 410.91333008 C-90.92128672 415.64251026 -94.731286 420.55359407 -98.4375 425.6875 C-103.55910933 432.71469523 -108.76945031 439.66358639 -114.0625 446.5625 C-119.58824478 453.77416619 -124.97672896 461.06560646 -130.2644043 468.453125 C-135.99756777 476.43901725 -141.98034088 484.22889972 -148 492 C-148.78246094 493.010625 -149.56492187 494.02125 -150.37109375 495.0625 C-151.91034384 497.04463291 -153.4536365 499.02342193 -155 501 C-162.96183963 499.55393938 -170.05686259 496.75611084 -177.5 493.625 C-178.13149963 493.36089325 -178.76299927 493.0967865 -179.41363525 492.82467651 C-214.65189289 478.06554113 -249.12923069 459.92857431 -279.29638672 436.32275391 C-281.93519726 434.27387522 -284.62631519 432.2988359 -287.3125 430.3125 C-293.01105401 426.03283225 -298.53828091 421.57723017 -304 417 C-304.52287598 416.56349121 -305.04575195 416.12698242 -305.58447266 415.67724609 C-315.39025692 407.46957016 -324.7390095 398.81480882 -334 390 C-331.59877745 385.7132537 -328.72228935 382.03803005 -325.625 378.25 C-321.19432296 372.77840525 -316.87204079 367.24012788 -312.625 361.625 C-306.96830993 354.16378471 -301.0605407 346.93482101 -295.08203125 339.73046875 C-292.24102351 336.30377372 -289.47567035 332.82814622 -286.765625 329.296875 C-278.98587215 319.17631156 -271.04309533 309.17175458 -262.96875 299.28515625 C-257.06746244 292.05577318 -251.2639041 284.78087912 -245.60546875 277.359375 C-242.03971022 272.72402837 -238.32280195 268.21058634 -234.62304688 263.68212891 C-231.20744341 259.49832072 -227.84033755 255.28544211 -224.5625 250.9921875 C-224.046875 250.33476563 -223.53125 249.67734375 -223 249 C-222.28070313 247.95199219 -221.56140625 246.90398437 -220.8203125 245.82421875 C-217.2956629 242.29468737 -214.59473011 242.21833652 -209.875 241.9375 C-204.05343055 241.25582905 -200.28333311 240.17281522 -196.33789062 235.71044922 C-194.5486681 233.42298698 -192.83834889 231.09722718 -191.19238281 228.70458984 C-189.38959049 226.12737936 -187.38316482 223.73126897 -185.375 221.3125 C-184.64796875 220.41789063 -183.9209375 219.52328125 -183.171875 218.6015625 C-181.05324515 216.06377926 -178.86115639 213.62189721 -176.625 211.1875 C-173.06443187 207.28635578 -169.78828181 203.23843347 -166.5625 199.0625 C-162.41492153 193.69666068 -158.04831779 188.64500986 -153.421875 183.6796875 C-150.09847562 180.00250689 -147.04951858 176.12641043 -144.0078125 172.21484375 C-142 170 -142 170 -138 168 C-129.75 176.25 -121.5 184.5 -113 193 C-110.29823132 187.59646264 -107.77533583 182.27748533 -105.48046875 176.7109375 C-105.14894302 175.91416092 -104.8174173 175.11738434 -104.47584534 174.29646301 C-103.75561696 172.5654016 -103.03653471 170.83386298 -102.31848145 169.10189819 C-100.34332716 164.33962321 -98.35765877 159.58174304 -96.37109375 154.82421875 C-95.73507736 153.30091698 -95.73507736 153.30091698 -95.08621216 151.74684143 C-89.70115893 138.8681313 -84.22571571 126.02785942 -78.75 113.1875 C-78.25704437 112.0311908 -77.76408875 110.87488159 -77.25619507 109.68353271 C-76.53226059 107.98562592 -76.53226059 107.98562592 -75.79370117 106.25341797 C-75.32369186 105.15090698 -74.85368256 104.048396 -74.36943054 102.91247559 C-73.45935401 100.78061195 -72.54755101 98.64948435 -71.63386536 96.51916504 C-69.77886899 92.19232254 -67.93261023 87.86549703 -66.17382812 83.49853516 C-65.90830139 82.84863113 -65.64277466 82.19872711 -65.36920166 81.52912903 C-64.7111341 79.91159323 -64.06619473 78.28873156 -63.42285156 76.6652832 C-61.72761667 73.489772 -59.63518918 71.43218355 -57 69 C-56.20980469 68.19820313 -55.41960937 67.39640625 -54.60546875 66.5703125 C-50.15097079 62.06544057 -45.67133773 57.70883059 -40.7890625 53.66796875 C-36.64237992 49.80195683 -34.18953095 45.65598242 -31.94140625 40.484375 C-31.67037582 39.8691095 -31.3993454 39.25384399 -31.12010193 38.61993408 C-30.26044455 36.66631766 -29.41071443 34.70860863 -28.5625 32.75 C-26.41512637 27.81442961 -24.23564581 22.89629905 -22 18 C-21.59281738 17.09258057 -21.18563477 16.18516113 -20.76611328 15.25024414 C-17.88680145 9.40622229 -14.53473513 6.79345287 -8.75 3.9375 C-7.65171875 3.35452148 -7.65171875 3.35452148 -6.53125 2.75976562 C-1.27455357 0 -1.27455357 0 0 0 Z " fill="#F2EAE0" transform="translate(474,426)"/>
<path d="M0 0 C1 2 1 2 0.36108398 4.46850586 C-0.00686279 5.53979736 -0.37480957 6.61108887 -0.75390625 7.71484375 C-0.96206467 8.32951004 -1.17022308 8.94417633 -1.38468933 9.57746887 C-1.85264007 10.95737919 -2.32393774 12.3361575 -2.79797363 13.71398926 C-4.15898291 17.67228145 -5.49375637 21.63944477 -6.83203125 25.60546875 C-7.14018768 26.51672516 -7.44834412 27.42798157 -7.76583862 28.36685181 C-12.59887671 42.6910412 -17.28106676 57.06563434 -21.98975754 71.43104935 C-23.25362942 75.2862096 -24.51857267 79.14101826 -25.78344727 82.99584961 C-28.18991619 90.33025461 -30.595335 97.66500334 -33 105 C-29.98908668 103.58974556 -26.98067965 102.17421929 -23.97265625 100.7578125 C-23.12981079 100.36311768 -22.28696533 99.96842285 -21.4185791 99.56176758 C-15.2500436 96.65278469 -9.28914563 93.50970132 -3.37109375 90.1171875 C-2.58863281 89.74851562 -1.80617188 89.37984375 -1 89 C-0.34 89.33 0.32 89.66 1 90 C0.72660294 90.95942505 0.45320587 91.9188501 0.17152405 92.90734863 C-2.40963597 101.96826407 -4.98458103 111.03092565 -7.55351925 120.09531403 C-8.87429504 124.75486087 -10.19721978 129.41377465 -11.52514648 134.07128906 C-12.80761565 138.56967271 -14.08432091 143.06965622 -15.35711861 147.57078552 C-15.84266633 149.28406971 -16.3302556 150.99677673 -16.81995964 152.70887756 C-17.50777237 155.11494887 -18.18816524 157.52300739 -18.86694336 159.93164062 C-19.06906433 160.63223602 -19.2711853 161.33283142 -19.47943115 162.05465698 C-22.17567149 170.86146766 -22.17567149 170.86146766 -20.12109375 179.34375 C-19.24794172 180.413643 -18.35230195 181.46549389 -17.4375 182.5 C-16.75155762 183.33736694 -16.75155762 183.33736694 -16.05175781 184.19165039 C-14.05091101 186.63128558 -11.98771659 189.01422655 -9.92578125 191.40234375 C-9.09626953 192.40974609 -9.09626953 192.40974609 -8.25 193.4375 C-7.76015625 193.99308594 -7.2703125 194.54867187 -6.765625 195.12109375 C-4.90803445 199.67977261 -9.30430392 206.39380445 -11.08520508 210.81860352 C-11.38957993 211.57888351 -11.69395477 212.33916351 -12.0075531 213.1224823 C-13.00995876 215.62526288 -14.01476911 218.12707088 -15.01953125 220.62890625 C-15.72231928 222.3827366 -16.42492764 224.13663896 -17.12736511 225.89060974 C-18.97673571 230.50739354 -20.82802183 235.12340653 -22.67987061 239.73919678 C-25.63305162 247.10058569 -28.58395998 254.46288473 -31.53366661 261.82566643 C-32.55690343 264.37871067 -33.58134149 266.93127036 -34.60591125 269.48377991 C-34.92712291 270.28538638 -35.24833456 271.08699286 -35.5792799 271.91289043 C-36.20161132 273.46505053 -36.82541737 275.01662036 -37.45083332 276.56754017 C-38.82942586 280.00031537 -40.17309147 283.4358113 -41.41342163 286.9211731 C-41.8321756 288.0843808 -42.25092957 289.2475885 -42.68237305 290.44604492 C-43.02729294 291.44544601 -43.37221283 292.44484711 -43.72758484 293.47453308 C-46.12094438 298.22483041 -50.31591782 299.92067761 -55 302 C-55.99386719 302.49564453 -56.98773437 302.99128906 -58.01171875 303.50195312 C-61.31677123 305.1422836 -64.64930872 306.70513226 -68 308.25 C-68.60637299 308.53001862 -69.21274597 308.81003723 -69.8374939 309.09854126 C-118.93305726 331.69813701 -179.24343748 352.16091652 -234 351 C-232.68273126 348.22472377 -231.2158334 345.75856143 -229.41796875 343.26953125 C-228.64851929 342.20230835 -228.64851929 342.20230835 -227.86352539 341.11352539 C-227.31043701 340.35418701 -226.75734863 339.59484863 -226.1875 338.8125 C-225.32016235 337.61645142 -225.32016235 337.61645142 -224.43530273 336.39624023 C-220.03081917 330.34999333 -215.51592984 324.39516107 -210.95019531 318.47021484 C-206.2692927 312.38560237 -201.70968346 306.21667154 -197.16918945 300.02685547 C-193.89190738 295.56119884 -190.5940194 291.11305016 -187.25952148 286.68994141 C-184.83004581 283.46714349 -182.41309127 280.23507713 -180 277 C-179.34306152 276.12166504 -179.34306152 276.12166504 -178.67285156 275.22558594 C-172.72939925 267.2394937 -167.5099969 259.00107492 -162.5390625 250.37890625 C-160.0743584 246.10492397 -157.52088529 241.89055806 -154.9375 237.6875 C-149.67575871 229.1154874 -144.45351797 220.51982019 -139.24020386 211.91830444 C-134.19326744 203.59164338 -129.11026637 195.28795257 -124 187 C-122.66645765 184.83346197 -121.33312462 182.66679509 -120 180.5 C-112 167.5 -112 167.5 -110.00317383 164.25585938 C-108.65842692 162.07017445 -107.31452542 159.88396918 -105.97143555 157.69726562 C-101.61724356 150.61112438 -97.22866666 143.54765688 -92.8125 136.5 C-87.9568757 128.74279222 -83.12101154 120.9739936 -78.3125 113.1875 C-72.27391764 103.41645853 -66.15720576 93.69665471 -60 84 C-59.42572266 83.09540039 -58.85144531 82.19080078 -58.25976562 81.25878906 C-55.26250137 76.53931296 -52.2613417 71.82237649 -49.25390625 67.109375 C-47.31161683 64.06497796 -45.37905713 61.01524465 -43.46484375 57.953125 C-38.84732043 50.59792784 -33.83544452 43.64979559 -28.45117188 36.84130859 C-26.23971967 34.03532399 -24.0543082 31.20925227 -21.86499023 28.38598633 C-16.39994315 21.34130895 -10.91029997 14.31625477 -5.37524414 7.32641602 C-3.48463492 4.93115816 -1.69413642 2.54120463 0 0 Z " fill="#F2EAE0" transform="translate(747,602)"/>
<path d="M0 0 C0.33 0 0.66 0 1 0 C0.5213337 8.13429112 -0.93680141 15.73735378 -2.9375 23.625 C-3.46809231 25.762861 -3.99805146 27.90087926 -4.52734375 30.0390625 C-4.77983887 31.05000977 -5.03233398 32.06095703 -5.29248047 33.10253906 C-6.10941665 36.44808723 -6.85666131 39.80487299 -7.57250977 43.17333984 C-8 45 -8 45 -9 48 C-8.14921875 47.41734375 -7.2984375 46.8346875 -6.421875 46.234375 C1.62745832 40.77123647 9.82460267 35.64841987 18.20166016 30.70336914 C25.53620396 26.34712441 32.66536748 21.70643751 39.72924805 16.92456055 C40.91901245 16.13239136 40.91901245 16.13239136 42.1328125 15.32421875 C42.83293457 14.85072998 43.53305664 14.37724121 44.25439453 13.8894043 C44.83044434 13.59590088 45.40649414 13.30239746 46 13 C46.99 13.495 46.99 13.495 48 14 C47.46375 14.74378906 46.9275 15.48757813 46.375 16.25390625 C34.78965991 32.3746221 23.52842834 48.72683896 12.30322266 65.09960938 C8.63861508 70.44342828 4.96698168 75.78242543 1.29345703 81.12011719 C0.45285756 82.3418265 -0.38733463 83.56381619 -1.22705078 84.78613281 C-6.37344677 92.2752753 -11.62362682 99.67417219 -17 107 C-16.3306543 106.57372314 -15.66130859 106.14744629 -14.97167969 105.70825195 C-10.19780315 102.669006 -5.42221525 99.63256681 -0.640625 96.60546875 C8.16820004 91.02345541 16.95332625 85.41911588 25.61083984 79.60473633 C40.11843299 69.86776491 54.91621525 60.56138662 69.63623047 51.15087891 C74.8831386 47.79587378 80.12843894 44.4383576 85.3737793 41.0809021 C88.05250287 39.36632732 90.73133388 37.65192041 93.41015625 35.9375 C94.29840088 35.36902344 95.18664551 34.80054688 96.10180664 34.21484375 C96.72821045 33.81394531 97.35461426 33.41304687 98 33 C98 36.96486663 96.14703799 38.94175375 93.875 42 C93.43414062 42.60521484 92.99328125 43.21042969 92.5390625 43.83398438 C91.03394814 45.89524676 89.51770664 47.94799396 88 50 C86.85657208 51.55193691 85.71334942 53.10402508 84.5703125 54.65625 C82.7735009 57.09488606 80.97575258 59.53280572 79.17529297 61.96875 C75.7419991 66.61724553 72.34328745 71.2864101 69 76 C62.78616768 84.75410248 56.38211765 93.36829296 50 102 C43.12369732 111.30267939 36.26002218 120.61233483 29.5 130 C22.15975779 140.19341866 14.69545642 150.29401291 7.22949219 160.39550781 C6.05078196 161.99076942 4.87255893 163.58639111 3.69482422 165.18237305 C2.53148181 166.75800866 1.36646547 168.33240986 0.19970703 169.90551758 C-2.79193787 173.95077846 -5.72812677 178.02447011 -8.59375 182.16015625 C-9.17632568 182.99281006 -9.75890137 183.82546387 -10.35913086 184.68334961 C-11.46842023 186.27343173 -12.56624402 187.87159432 -13.65063477 189.47875977 C-14.14877686 190.18959717 -14.64691895 190.90043457 -15.16015625 191.6328125 C-15.58949463 192.26074707 -16.01883301 192.88868164 -16.46118164 193.53564453 C-18.6163569 195.5865316 -20.03998127 195.85564175 -23 196 C-25.72875977 195.01879883 -25.72875977 195.01879883 -28.69140625 193.45703125 C-29.79129883 192.8837207 -30.89119141 192.31041016 -32.02441406 191.71972656 C-33.20422743 191.08482246 -34.38357961 190.4490607 -35.5625 189.8125 C-36.77936263 189.16715318 -37.99648764 188.52230086 -39.21386719 187.87792969 C-63.97164169 174.6916032 -87.2432181 159.26340956 -109.35546875 142.03125 C-111.18909063 140.62285506 -113.07622747 139.28251502 -115 138 C-114.44669381 133.45437688 -112.52752593 130.13543812 -110.0625 126.375 C-109.66498535 125.76253418 -109.2674707 125.15006836 -108.85791016 124.51904297 C-104.80809673 118.44511227 -100.04054286 113.27616089 -95 108 C-93.80357627 106.65371108 -92.61522355 105.30017782 -91.4375 103.9375 C-88.87326088 100.98292003 -86.25862443 98.08039315 -83.625 95.1875 C-80.53363199 91.76770672 -77.57540968 88.28041476 -74.6875 84.6875 C-70.79614512 79.87254256 -66.66870856 75.34912829 -62.43994141 70.83447266 C-59.34263774 67.50897767 -56.40400241 64.11307457 -53.5625 60.5625 C-48.97687705 54.84926485 -44.00254458 49.54798063 -38.99609375 44.20703125 C-34.63009707 39.54808681 -30.46824167 34.72929197 -26.3359375 29.86328125 C-20.71896572 23.26116766 -15.03032875 16.75958102 -9.09692383 10.4387207 C-6.71686347 7.89659961 -4.41736221 5.32073739 -2.21484375 2.625 C-1.48394531 1.75875 -0.75304687 0.8925 0 0 Z " fill="#191E2B" transform="translate(293,712)"/>
<path d="M0 0 C8.01525661 6.76780165 13.82987364 16.31481584 15.18359375 26.84375 C16.16130952 39.41438135 13.12475486 48.45992185 6.18359375 58.84375 C5.60609375 59.730625 5.02859375 60.6175 4.43359375 61.53125 C-4.33244878 70.54079371 -14.81740929 74.94796971 -27.31640625 75.34375 C-40.17212657 74.92397138 -50.74946352 70.29997348 -59.66015625 60.8984375 C-68.11853703 50.23915151 -70.8869387 39.31716549 -69.81640625 25.84375 C-67.52457934 14.67454536 -61.45619696 4.20421004 -51.81640625 -2.15625 C-34.59487132 -11.9021253 -16.24280499 -12.26656633 0 0 Z " fill="#F85C49" transform="translate(720.81640625,184.15625)"/>
<path d="M0 0 C0.495 0.99 0.495 0.99 1 2 C0.15820312 3.83398438 0.15820312 3.83398438 -1.21875 6.09375 C-1.98795776 7.37282227 -1.98795776 7.37282227 -2.77270508 8.67773438 C-3.3427124 9.60908203 -3.91271973 10.54042969 -4.5 11.5 C-5.70319935 13.49917224 -6.90496253 15.49920937 -8.10546875 17.5 C-8.74145996 18.55703125 -9.37745117 19.6140625 -10.03271484 20.703125 C-13.35291063 26.26727539 -16.582188 31.8833424 -19.8125 37.5 C-20.44631592 38.59957031 -21.08013184 39.69914063 -21.7331543 40.83203125 C-24.38854537 45.4424675 -27.03773691 50.05600497 -29.65625 54.6875 C-30.21735474 55.6784668 -30.21735474 55.6784668 -30.78979492 56.68945312 C-31.72390512 58.34315598 -32.65322119 59.9995645 -33.58203125 61.65625 C-36.94481006 67.21456208 -41.91475442 67.59360467 -47.875 69.1875 C-48.99583984 69.48849609 -50.11667969 69.78949219 -51.27148438 70.09960938 C-61.60331901 72.78688785 -72.02477765 74.95183138 -82.5 77 C-83.30661072 77.15947113 -84.11322144 77.31894226 -84.9442749 77.48324585 C-87.2425628 77.93483854 -89.54257334 78.37589289 -91.84375 78.8125 C-92.53844391 78.94856155 -93.23313782 79.08462311 -93.94888306 79.22480774 C-98.76819685 80.11590158 -98.76819685 80.11590158 -101 79 C-93.14107762 72.52056932 -85.25715729 66.11447523 -77.0625 60.0625 C-70.58254129 55.27098686 -64.34877567 50.23209686 -58.15356445 45.0793457 C-51.89254292 39.88046819 -45.48361047 34.91803575 -39 30 C-36.93611187 28.41847653 -34.87364334 26.835099 -32.8125 25.25 C-32.29244385 24.85039063 -31.7723877 24.45078125 -31.23657227 24.0390625 C-25.61876025 19.71728148 -20.02906853 15.35929441 -14.44262695 10.99707031 C-9.66911564 7.27573002 -4.85539924 3.6138547 0 0 Z " fill="#191E2A" transform="translate(651,869)"/>
<path d="M0 0 C0 3 0 3 -1.125 4.5 C-3 6 -3 6 -5.5625 7.1875 C-11.85711973 10.50648131 -17.1176272 15.38276843 -22.5 20 C-25 22 -25 22 -27 22 C-27.268125 22.639375 -27.53625 23.27875 -27.8125 23.9375 C-29 26 -29 26 -32 27 C-33.20882096 29.00016466 -33.20882096 29.00016466 -34 31 C-34.66 31 -35.32 31 -36 31 C-36.495 32.485 -36.495 32.485 -37 34 C-38.32 33.67 -39.64 33.34 -41 33 C-28.30110105 20.70360181 -14.64547629 9.89559209 0 0 Z " fill="#DA594F" transform="translate(334,267)"/>
<path d="M0 0 C0.33 0.66 0.66 1.32 1 2 C-0.42123587 5.55308966 -1.97569607 8.95139214 -3.6875 12.375 C-5.30352219 16.70423838 -5.29144887 20.99685181 -5.3125 25.5625 C-5.31789795 26.2829248 -5.3232959 27.00334961 -5.32885742 27.74560547 C-5.26627021 32.50114545 -4.48977424 36.48319444 -3 41 C-3.99 41.495 -3.99 41.495 -5 42 C-9.72398898 31.29229164 -9.16476152 19.42194625 -5.15625 8.61328125 C-3.73701934 5.40562817 -2.15020217 2.76454565 0 0 Z " fill="#D55948" transform="translate(659,192)"/>
<path d="M0 0 C1 2 1 2 0.00390625 5.4765625 C-0.46900047 6.86197936 -0.94981644 8.24471547 -1.4375 9.625 C-1.68048828 10.33140625 -1.92347656 11.0378125 -2.17382812 11.765625 C-2.77587205 13.51273287 -3.38708017 15.25667786 -4 17 C-4.95132813 16.9690625 -5.90265625 16.938125 -6.8828125 16.90625 C-9.99414521 16.68733516 -9.99414521 16.68733516 -11.875 18.5 C-12.24625 18.995 -12.6175 19.49 -13 20 C-13.66 19.67 -14.32 19.34 -15 19 C-14.25234375 18.13117187 -13.5046875 17.26234375 -12.734375 16.3671875 C-11.73941344 15.20327021 -10.74463132 14.03919951 -9.75 12.875 C-9.25886719 12.30523438 -8.76773438 11.73546875 -8.26171875 11.1484375 C-5.21951619 7.57891983 -2.52381683 3.9539797 0 0 Z " fill="#DBD8D5" transform="translate(747,602)"/>
<path d="M0 0 C12.71793774 3.46085474 24.32284409 9.00595695 36 15 C35.01 15.33 34.02 15.66 33 16 C31.3018682 15.05441755 29.63787645 14.04648867 28 13 C26.32991411 12.32985495 24.64078422 11.70560669 22.9375 11.125 C17.78433259 9.31197764 12.75667742 7.27708451 7.7265625 5.1484375 C5.16238706 4.06839799 2.58651505 3.02520051 0 2 C0 1.34 0 0.68 0 0 Z " fill="#D65952" transform="translate(564,239)"/>
<path d="M0 0 C0.66 0.33 1.32 0.66 2 1 C1.54321462 2.85454862 1.0844894 4.70861949 0.625 6.5625 C0.36976563 7.59503906 0.11453125 8.62757813 -0.1484375 9.69140625 C-0.72696121 11.93915662 -1.33758278 14.17883908 -1.9765625 16.41015625 C-2.69031428 18.91373598 -3.3669226 21.4063687 -4 23.9296875 C-4.165 24.579375 -4.33 25.2290625 -4.5 25.8984375 C-4.83890854 27.23818533 -5.17206682 28.57939853 -5.5 29.921875 C-5.93937602 31.63132234 -6.46328498 33.31857248 -7 35 C-7.99 35.495 -7.99 35.495 -9 36 C-8.36677364 28.79705016 -6.50153976 22.12054434 -4.5 15.1875 C-4.01853516 13.49077148 -4.01853516 13.49077148 -3.52734375 11.75976562 C-1.22955995 3.68867985 -1.22955995 3.68867985 0 0 Z " fill="#D85748" transform="translate(232,396)"/>
<path d="M0 0 C1.32 0 2.64 0 4 0 C3 3 3 3 1 4 C1.99 4.99 2.98 5.98 4 7 C2.23462904 8.17491582 0.46250287 9.33968684 -1.3125 10.5 C-2.29863281 11.1496875 -3.28476562 11.799375 -4.30078125 12.46875 C-7 14 -7 14 -10 14 C-9.16855469 12.86111328 -9.16855469 12.86111328 -8.3203125 11.69921875 C-7.59585937 10.70535156 -6.87140625 9.71148438 -6.125 8.6875 C-5.40570313 7.70136719 -4.68640625 6.71523438 -3.9453125 5.69921875 C-2.5944065 3.82476885 -1.28164671 1.92247007 0 0 Z " fill="#E2E0D6" transform="translate(285,805)"/>
<path d="M0 0 C0.33 0.99 0.66 1.98 1 3 C-0.07335859 4.38497883 -1.16737728 5.75684612 -2.3359375 7.0625 C-7.38960391 12.94658108 -11.78111164 19.49588045 -16 26 C-16.99 25.67 -17.98 25.34 -19 25 C-6.04255319 7.65957447 -6.04255319 7.65957447 0 0 Z " fill="#D9594C" transform="translate(279,315)"/>
<path d="M0 0 C1.08203125 1.84375 1.08203125 1.84375 2 4 C0.6875 6.5 0.6875 6.5 -1 9 C-1.13664063 9.58265625 -1.27328125 10.1653125 -1.4140625 10.765625 C-2.21657215 13.82586179 -3.62494106 16.43605485 -5.0625 19.25 C-5.61035156 20.32765625 -6.15820312 21.4053125 -6.72265625 22.515625 C-7.14417969 23.33546875 -7.56570312 24.1553125 -8 25 C-8.66 25 -9.32 25 -10 25 C-7.37589493 16.35588919 -3.68616238 8.23074615 0 0 Z " fill="#DD5948" transform="translate(243,370)"/>
<path d="M0 0 C1 3 1 3 0.03125 5.3125 C-0.72671875 6.6428125 -0.72671875 6.6428125 -1.5 8 C-2.05042969 8.96808594 -2.60085938 9.93617188 -3.16796875 10.93359375 C-5.55978455 14.93695282 -8.040802 18.87514127 -10.58203125 22.78515625 C-12.00492232 24.92182934 -12.00492232 24.92182934 -13 27 C-13.66 26.67 -14.32 26.34 -15 26 C-5.42553191 7.46808511 -5.42553191 7.46808511 0 0 Z " fill="#DA5949" transform="translate(259,342)"/>
<path d="M0 0 C0.66 0 1.32 0 2 0 C0.28137532 5.68468165 -2.1641675 10.98423881 -4.625 16.375 C-5.04523438 17.30183594 -5.46546875 18.22867187 -5.8984375 19.18359375 C-6.92964882 21.45694599 -7.96356863 23.72902406 -9 26 C-9.9583258 22.6329684 -9.99260722 21.2397975 -8.4375 18.0625 C-8.07011719 17.29164063 -7.70273437 16.52078125 -7.32421875 15.7265625 C-6.88722656 14.82679688 -6.45023437 13.92703125 -6 13 C-4.91352082 10.64728353 -3.83027789 8.29307031 -2.75 5.9375 C-1.83396224 3.95804217 -0.91751482 1.97877362 0 0 Z " fill="#E26A5B" transform="translate(453,438)"/>
<path d="M0 0 C0 0.66 0 1.32 0 2 C-1.216875 2.4125 -2.43375 2.825 -3.6875 3.25 C-7.383371 4.6171452 -9.99052241 6.43309264 -13 9 C-13.66 9 -14.32 9 -15 9 C-15.2475 9.639375 -15.495 10.27875 -15.75 10.9375 C-17 13 -17 13 -19.078125 13.62890625 C-20.02945313 13.81259766 -20.02945313 13.81259766 -21 14 C-16.21922661 7.7095087 -8.53431984 0 0 0 Z " fill="#D75B51" transform="translate(681,177)"/>
<path d="M0 0 C1.30066406 -0.01417969 2.60132813 -0.02835938 3.94140625 -0.04296875 C7.23419622 0.17409785 8.64946251 0.64504319 11.4375 2.1875 C8.3753174 2.38283059 5.31303679 2.56903284 2.25 2.75 C0.95352539 2.83411133 0.95352539 2.83411133 -0.36914062 2.91992188 C-4.60999079 3.1636489 -8.42047819 3.34520796 -12.5625 2.1875 C-12.5625 1.8575 -12.5625 1.5275 -12.5625 1.1875 C-8.34285054 0.17120678 -4.33376004 0.02151817 0 0 Z " fill="#D4584D" transform="translate(693.5625,174.8125)"/>
<path d="M0 0 C0.33 0.99 0.66 1.98 1 3 C-1.3125 6.1875 -1.3125 6.1875 -4 9 C-4.66 9 -5.32 9 -6 9 C-6.2475 9.639375 -6.495 10.27875 -6.75 10.9375 C-8 13 -8 13 -10.078125 13.62890625 C-11.02945312 13.81259766 -11.02945312 13.81259766 -12 14 C-8 9.33333333 -4 4.66666667 0 0 Z " fill="#DA574D" transform="translate(292,301)"/>
<path d="M0 0 C1.89957501 0.90888756 3.79450786 1.82748031 5.6875 2.75 C7.27111328 3.51570313 7.27111328 3.51570313 8.88671875 4.296875 C11.90003083 5.94531172 14.39287648 7.77499662 17 10 C15.35 10 13.7 10 12 10 C12 9.34 12 8.68 12 8 C11.13375 7.7525 10.2675 7.505 9.375 7.25 C5.78939936 5.92199976 3.03672013 4.31369152 0 2 C0 1.34 0 0.68 0 0 Z " fill="#D55A53" transform="translate(601,255)"/>
<path d="M0 0 C0.66 0.33 1.32 0.66 2 1 C1.34 2.32 0.68 3.64 0 5 C-0.66 5 -1.32 5 -2 5 C-2.268125 5.598125 -2.53625 6.19625 -2.8125 6.8125 C-3.99917406 8.99847854 -5.09599113 10.41332594 -7 12 C-7.66 12 -8.32 12 -9 12 C-7.55575365 8.76138697 -5.74227753 6.38030837 -3.375 3.75 C-2.74335938 3.04359375 -2.11171875 2.3371875 -1.4609375 1.609375 C-0.97882813 1.07828125 -0.49671875 0.5471875 0 0 Z " fill="#282A32" transform="translate(410,810)"/>
<path d="M0 0 C-0.11429397 1.77155654 -0.24183037 3.54226229 -0.375 5.3125 C-0.44460938 6.29863281 -0.51421875 7.28476562 -0.5859375 8.30078125 C-1 11 -1 11 -3 14 C-3 11.03 -3 8.06 -3 5 C-3.66 4.67 -4.32 4.34 -5 4 C-1.125 0 -1.125 0 0 0 Z " fill="#464446" transform="translate(294,712)"/>
<path d="M0 0 C1.65 1.65 3.3 3.3 5 5 C4.01 5.66 3.02 6.32 2 7 C1.42006301 9.19454681 1.42006301 9.19454681 1.3125 11.625 C1.24675781 12.44226563 1.18101562 13.25953125 1.11328125 14.1015625 C1.07589844 14.72804688 1.03851563 15.35453125 1 16 C0.67 16 0.34 16 0 16 C0 10.72 0 5.44 0 0 Z " fill="#36292D" transform="translate(475,427)"/>
<path d="M0 0 C1.65 0 3.3 0 5 0 C1.11327187 3.18005028 -2.89952133 6.10554447 -7 9 C-7.66 8.67 -8.32 8.34 -9 8 C-7.29374499 5.21611025 -6.52373261 4.14615794 -3.3125 3.25 C-2.549375 3.1675 -1.78625 3.085 -1 3 C-0.67 2.01 -0.34 1.02 0 0 Z " fill="#D6D4CD" transform="translate(284,811)"/>
<path d="M0 0 C0.66 0 1.32 0 2 0 C-0.45945946 7.72972973 -0.45945946 7.72972973 -2 10 C-3.64848921 10.71042631 -5.3149287 11.38132648 -7 12 C-5.88407791 9.99492073 -4.75701288 7.99603904 -3.625 6 C-2.68527344 4.329375 -2.68527344 4.329375 -1.7265625 2.625 C-1.15679688 1.75875 -0.58703125 0.8925 0 0 Z " fill="#E2DFD6" transform="translate(697,670)"/>
<path d="M0 0 C5.70629354 0.42797202 9.41078616 2.84345952 14 6 C10.98968256 6.93423645 10.13349732 7.04449911 7 6 C6.34 5.01 5.68 4.02 5 3 C2.44816596 1.79549696 2.44816596 1.79549696 0 1 C0 0.67 0 0.34 0 0 Z " fill="#DC5B50" transform="translate(705,177)"/>
<path d="M0 0 C0.33 0.66 0.66 1.32 1 2 C-0.98 4.97 -0.98 4.97 -3 8 C-3.66 7.67 -4.32 7.34 -5 7 C-7.09821215 7.39938767 -7.09821215 7.39938767 -9 8 C-6.14723863 5.06799526 -3.34920216 2.35684596 0 0 Z " fill="#353031" transform="translate(651,869)"/>
<path d="M0 0 C0.33 0.66 0.66 1.32 1 2 C-0.97764782 6.06516496 -3.7373124 8.91367389 -7 12 C-7.66 11.67 -8.32 11.34 -9 11 C-6.03 7.37 -3.06 3.74 0 0 Z " fill="#3A1821" transform="translate(685,634)"/>
<path d="M0 0 C2.70626891 1.35313446 3.2225245 3.23488288 4.3359375 5.9453125 C5.41018691 9.26916656 5.69526228 12.52599 6 16 C3.63224279 13.63224279 3.00103504 11.70288662 1.875 8.5625 C1.52179688 7.59441406 1.16859375 6.62632812 0.8046875 5.62890625 C0 3 0 3 0 0 Z " fill="#D35A50" transform="translate(231,557)"/>
<path d="M0 0 C0.33 0.66 0.66 1.32 1 2 C0.34 2 -0.32 2 -1 2 C-1.20625 2.61875 -1.4125 3.2375 -1.625 3.875 C-3.54775888 6.84653645 -5.66594527 7.13024659 -9 8 C-7.82255415 4.46766245 -7.04394359 4.13691925 -3.9375 2.3125 C-3.20402344 1.87550781 -2.47054688 1.43851563 -1.71484375 0.98828125 C-1.14894531 0.66214844 -0.58304687 0.33601562 0 0 Z " fill="#272733" transform="translate(321,790)"/>
<path d="M0 0 C0.66 0.33 1.32 0.66 2 1 C2 1.66 2 2.32 2 3 C-3.41176471 7 -3.41176471 7 -6 7 C-5.67 5.68 -5.34 4.36 -5 3 C-3.35 2.67 -1.7 2.34 0 2 C0 1.34 0 0.68 0 0 Z " fill="#E9E1DD" transform="translate(327,783)"/>
<path d="M0 0 C0.66 0.33 1.32 0.66 2 1 C0.38405168 3.04119788 -1.2856382 5.04072937 -3 7 C-3.66 7 -4.32 7 -5 7 C-5.33 7.66 -5.66 8.32 -6 9 C-5.69381595 5.32579134 -5.24228216 4.21864487 -2.4375 1.6875 C-1.633125 1.130625 -0.82875 0.57375 0 0 Z " fill="#322B2D" transform="translate(339,725)"/>
<path d="M0 0 C0.33 0.99 0.66 1.98 1 3 C-2.32307692 6.93846154 -2.32307692 6.93846154 -5.75 7.25 C-6.4925 7.1675 -7.235 7.085 -8 7 C-5.4837822 4.39391727 -2.94865641 2.10618315 0 0 Z " fill="#341C28" transform="translate(664,658)"/>
<path d="M0 0 C0 3 0 3 -2 5.1875 C-2.66 5.785625 -3.32 6.38375 -4 7 C-4.66 6.67 -5.32 6.34 -6 6 C-4.75453595 2.26360784 -3.36595047 1.81243487 0 0 Z " fill="#3A3235" transform="translate(391,745)"/>
<path d="M0 0 C1.21386936 3.64160808 0.6674695 4.33165469 -0.9375 7.6875 C-1.31777344 8.49574219 -1.69804687 9.30398438 -2.08984375 10.13671875 C-2.39019531 10.75160156 -2.69054687 11.36648438 -3 12 C-4.46538911 7.57452487 -3.0196077 5.11689261 -1 1 C-0.67 0.67 -0.34 0.34 0 0 Z " fill="#E36A58" transform="translate(390,549)"/>
<path d="M0 0 C8.03571429 0.80357143 8.03571429 0.80357143 12 3 C10.56344146 3.08131463 9.1255517 3.13933559 7.6875 3.1875 C6.48673828 3.23970703 6.48673828 3.23970703 5.26171875 3.29296875 C2.52148416 2.93801608 1.70828921 2.10633718 0 0 Z " fill="#DA5851" transform="translate(535,231)"/>
<path d="M0 0 C3.0916909 2.52956528 3.90931332 5.22454612 5 9 C4.34 9 3.68 9 3 9 C2.896875 8.360625 2.79375 7.72125 2.6875 7.0625 C2.460625 6.381875 2.23375 5.70125 2 5 C1.01 4.67 0.02 4.34 -1 4 C-0.67 2.68 -0.34 1.36 0 0 Z " fill="#D75946" transform="translate(729,195)"/>
<path d="M0 0 C0 0.99 0 1.98 0 3 C-1.98 3.99 -3.96 4.98 -6 6 C-5.25 3.5625 -5.25 3.5625 -4 1 C-1.875 0.1875 -1.875 0.1875 0 0 Z " fill="#E7E2DD" transform="translate(311,741)"/>
<path d="M0 0 C0.66 0.33 1.32 0.66 2 1 C2 1.66 2 2.32 2 3 C2.66 3.66 3.32 4.32 4 5 C2.02 5.66 0.04 6.32 -2 7 C-1.34 4.69 -0.68 2.38 0 0 Z " fill="#434240" transform="translate(715,701)"/>
<path d="M0 0 C2.02054804 1.64169528 4.02043058 3.30911778 6 5 C6 5.33 6 5.66 6 6 C4.35 6 2.7 6 1 6 C0.67 4.02 0.34 2.04 0 0 Z " fill="#D8574A" transform="translate(720,184)"/>
<path d="M0 0 C0.33 0.66 0.66 1.32 1 2 C-0.32 3.65 -1.64 5.3 -3 7 C-3.99 6.67 -4.98 6.34 -6 6 C-4.02 4.02 -2.04 2.04 0 0 Z " fill="#C95649" transform="translate(666,184)"/>
</svg>
