<?xml version="1.0" encoding="UTF-8"?>
<!DOCTYPE svg PUBLIC "-//W3C//DTD SVG 1.1//EN" "http://www.w3.org/Graphics/SVG/1.1/DTD/svg11.dtd">
<!-- Creator: CorelDRAW X7 -->
<svg xmlns="http://www.w3.org/2000/svg" xml:space="preserve" width="100px" height="100px" version="1.1" style="shape-rendering:geometricPrecision; text-rendering:geometricPrecision; image-rendering:optimizeQuality; fill-rule:evenodd; clip-rule:evenodd"
viewBox="0 0 100 100"
 xmlns:xlink="http://www.w3.org/1999/xlink">
 <defs>
  <style type="text/css">
   <![CDATA[
    .fil2 {fill:#FEFEFE}
    .fil3 {fill:#2B2A29}
    .fil0 {fill:#181E2B}
    .fil1 {fill:#FB5C4A}
   ]]>
  </style>
 </defs>
 <g id="Ebene_x0020_1">
  <metadata id="CorelCorpID_0Corel-Layer"/>
  <path class="fil0" d="M50 0c28,0 50,22 50,50 0,19 -11,36 -27,44l5 -10 -2 -3 2 -9 -3 2 3 -11 -4 5 -7 11 -7 12 -7 9c1,0 1,0 1,0 -1,0 -3,0 -4,0 -6,0 -12,-1 -17,-3l7 -9 11 -13 -2 -3 2 -8 -3 -5 5 -7 -3 -1 0 -7 -2 1 -2 5 -3 2 -5 13 -3 -3 -6 8 -2 0 -6 7 -6 8 0 0c-9,-9 -15,-21 -15,-35 0,-28 22,-50 50,-50zm-17 97c0,0 0,0 -1,0 1,0 1,0 1,0zm-1 0c0,0 0,-1 -1,-1 1,0 1,1 1,1zm-1 -1c0,0 -1,0 -1,0 0,0 1,0 1,0zm-1 0c-1,0 -1,0 -1,0 0,0 0,0 1,0zm-2 -1c-3,-2 -7,-4 -10,-7 0,1 0,1 0,1l1 -2 12 -13 -1 5 6 -3 -7 10 12 -8 -9 12 -4 5zm-10 -7c-1,0 -1,0 -1,0 0,0 0,0 1,0zm-1 -1c-1,0 -1,0 -1,0 0,0 0,0 1,0zm56 7c0,0 0,1 -1,1 1,0 1,-1 1,-1zm-1 1c-4,2 -9,4 -15,4l11 -8 -4 7c3,-1 6,-2 8,-3zm-15 5c-1,0 -1,0 -1,0 0,0 0,0 1,0zm-2 0c0,0 0,0 0,0 0,0 0,0 0,0z"/>
  <path class="fil1" d="M50 23c15,0 27,12 27,27 0,8 -4,16 -10,21 1,0 1,-1 2,-1l-19 -26 0 7 3 1 -5 7 3 5 -2 8 2 3 -1 2c-15,0 -27,-12 -27,-27 0,-15 12,-27 27,-27zm17 48c0,0 0,0 0,0 0,0 0,0 0,0zm0 0c-1,0 -1,1 -1,1 0,0 0,-1 1,-1zm-1 1c0,0 0,0 0,0 0,0 0,0 0,0zm0 0c-1,0 -1,0 -1,0 0,0 0,0 1,0zm-1 0c0,1 0,1 0,1 0,0 0,0 0,-1zm-1 1c0,0 0,0 0,0 0,0 0,0 0,0zm0 0c0,0 0,0 -1,0 1,0 1,0 1,0zm-1 0c0,1 0,1 0,1 0,0 0,0 0,-1zm0 1c0,0 -1,0 -1,0 0,0 1,0 1,0zm-1 0c0,0 0,0 0,0 0,0 0,0 0,0zm-1 0c0,0 0,0 0,1 0,-1 0,-1 0,-1zm0 1c0,0 0,0 0,0 0,0 0,0 0,0zm-1 0c0,0 0,0 0,0 0,0 0,0 0,0z"/>
  <path class="fil2" d="M50 44l0 7 3 1 -5 7 3 5 -2 8 2 3 -11 13 -7 9c-1,0 -3,-1 -5,-2l4 -5 9 -12 -12 8 7 -10 -6 3 1 -5 -12 13 -1 2c-1,-1 -2,-2 -3,-4l6 -8 6 -7 2 0 6 -8 3 3 5 -13 3 -2 2 -5 2 -1z"/>
  <path class="fil2" d="M78 63l-3 11 3 -2 -2 9 2 3 -5 10c-3,2 -6,3 -9,4l4 -7 -11 8c-1,1 -2,1 -4,1l7 -9 7 -12 7 -11 4 -5z"/>
  <path class="fil3" d="M50 44l19 26c-5,4 -12,7 -19,7 0,0 0,0 0,0l1 -2 -2 -3 2 -8 -3 -5 5 -7 -3 -1 0 -7z"/>
 </g>
</svg>
