<?xml version="1.0" encoding="UTF-8"?>
<!DOCTYPE svg PUBLIC "-//W3C//DTD SVG 1.1//EN" "http://www.w3.org/Graphics/SVG/1.1/DTD/svg11.dtd">
<!-- Creator: CorelDRAW X7 -->
<svg xmlns="http://www.w3.org/2000/svg" xml:space="preserve" width="1024px" height="1024px" version="1.1" style="shape-rendering:geometricPrecision; text-rendering:geometricPrecision; image-rendering:optimizeQuality; fill-rule:evenodd; clip-rule:evenodd"
viewBox="0 0 1024 1024"
 xmlns:xlink="http://www.w3.org/1999/xlink">
 <defs>
  <style type="text/css">
   <![CDATA[
    .fil2 {fill:#FEFEFE}
    .fil0 {fill:#181E2B}
    .fil1 {fill:#FB5C4A}
   ]]>
  </style>
 </defs>
 <g id="Ebene_x0020_1">
  <metadata id="CorelCorpID_0Corel-Layer"/>
  <rect class="fil0" width="1024" height="1024"/>
  <g>
   <path class="fil1" d="M510 159c123,0 222,98 222,219 0,63 -27,119 -70,159l-152 -378zm150 380l0 0 0 0c1,-1 1,-1 2,-2 -1,1 -1,1 -2,2zm-2 2l0 0 0 0 0 0 0 0zm-2 2l-1 0 0 1 1 -1 0 0zm-2 2l-1 0 0 0c0,0 1,0 1,-1l0 1zm-3 2l0 0 0 0 1 -1 -1 1zm5 -5c1,0 1,-1 2,-1l-2 1zm2 -1c1,-1 1,-1 2,-2 -1,1 -1,1 -2,2zm4 -4l-156 -204 0 0 0 0 4 51 27 10 -45 55 24 40 -13 71 15 25 -10 11c-121,-1 -220,-98 -220,-218 0,-121 100,-219 222,-219l152 378zm-14 12l0 0 0 0zm0 0l0 0 0 0zm0 0c0,0 -1,1 -1,1 0,0 1,-1 1,-1zm-1 1l0 0 0 0zm0 0l0 0 0 0zm0 0l0 0 0 0zm0 0l0 0 0 0zm0 0l0 0 0 0zm0 0l0 0 0 0zm0 0l-1 1 1 -1zm-1 1l0 0 0 0zm0 0l0 0 0 0zm0 0l0 0 0 0zm0 0l0 0 0 0zm0 0l0 0 0 0zm0 0l0 0 0 0zm0 0l0 0 0 0zm0 0l0 0 0 0zm0 0l0 0 0 0zm0 0l0 0 0 0zm0 0l0 0 0 0zm0 0l0 0 0 0zm0 0l-1 0 1 0zm-1 0l0 0 0 0zm0 0l0 0 0 0zm0 0l0 0 0 0zm0 0l0 0 0 0zm0 0l0 0 0 0zm0 0l0 0 0 0zm0 0l0 0 0 0zm0 0l0 0 0 0zm0 0l0 0 0 0zm0 0l0 1 0 -1zm-5 4c0,0 -1,1 -1,1l1 -1zm-1 1l0 0 0 0zm0 0l0 0 0 0zm0 0l0 0 0 0zm0 0l0 0 0 0zm0 0l0 0 0 0zm0 0l-1 0 1 0zm-1 0l0 0 0 0zm0 0l0 0 0 0zm0 0l0 0 0 0zm0 0l0 1 0 -1zm0 1l0 0 0 0zm0 0l0 0 0 0zm0 0l0 0 0 0zm0 0l0 0 0 0zm0 0l0 0 0 0zm0 0l0 0 0 0zm0 0l0 0 0 0zm0 0l0 0 0 0zm0 0l-1 0 1 0zm-1 0l0 0 0 0zm0 0l0 0 0 0zm0 0l0 0 0 0zm0 0l0 0 0 0zm0 0l0 0 0 0zm0 0l0 0 0 0zm0 0l0 0 0 0zm-1 1l-1 1 1 -1zm-1 1l0 0 0 0zm0 0l0 0 0 0zm0 0l-1 0 1 0zm-1 0l0 0 0 0zm0 0l0 0 0 0zm0 0l0 0 0 0zm0 0l0 0 0 0zm0 0l0 0 0 0zm0 0l0 0 0 0zm0 0l0 0 0 0zm0 0l0 0 0 0zm0 0l0 1 0 -1zm0 1l0 0 0 0zm0 0l-1 0 1 0zm-1 0l0 0 0 0zm0 0l0 0 0 0zm0 0l0 0 0 0zm0 0l0 0 0 0zm0 0l0 0 0 0zm0 0l0 0 0 0zm0 0l0 0 0 0zm0 0l0 0 0 0zm0 0l0 0 0 0zm0 0l0 0 0 0zm0 0l0 0 0 0zm0 0l0 0 0 0zm0 0l0 0 0 0zm0 0l0 0 0 0zm0 0l0 0 0 0zm0 0l-1 0 1 0zm-6 4l0 0 0 0zm0 0l0 0 0 0zm0 0l0 0 0 0zm0 0l0 0 0 0zm0 0l0 0 0 0zm0 0l0 0 0 0zm0 0l0 0 0 0zm0 0l0 0 0 0zm0 0l0 0 0 0zm0 0l-1 0 1 0zm-1 0l0 0 0 0zm0 0l0 0 0 0zm0 0l0 0 0 0zm0 0l0 0 0 0zm0 0l0 0 0 0zm0 0l0 0 0 0zm0 0l0 0 0 0zm0 0l0 0 0 0zm0 0l0 0 0 0zm0 0l0 0 0 0zm0 0l-1 1c0,0 1,0 1,-1zm-1 1l0 0 0 0zm0 0l0 0 0 0zm0 0l0 0 0 0zm0 0l0 0 0 0zm0 0l0 0 0 0zm0 0l0 0 0 0zm0 0l0 0 0 0zm0 0l0 0 0 0zm0 0l-1 0 1 0zm-1 0l0 0 0 0zm0 0l0 0 0 0zm0 0l0 0 0 0zm0 0l0 0 0 0zm0 0l0 0 0 0zm0 0l0 1 0 -1zm0 1l0 0 0 0zm0 0l0 0 0 0zm0 0l0 0 0 0zm0 0l0 0 0 0zm0 0l0 0 0 0zm-2 1l0 0 0 0 0 0zm0 0l0 0 0 0 0 0zm-2 1l0 0 0 0 0 0zm0 0l0 0 0 0zm0 0l0 0 0 0 0 0 0 0zm0 0l0 0 0 0 0 0 0 0 0 0 0 0 0 0zm0 0l0 0 0 0 0 0 0 0 0 0 0 0zm0 0l0 0 0 0 0 0zm1 -1l0 0 0 0 0 0zm0 0l0 0 0 0 0 0zm-5 3l0 0 0 0 0 0zm0 0l0 0 0 0zm0 0l0 0 0 0zm0 0l0 0 0 0zm0 0l0 0 0 0zm0 0l0 0 0 0zm0 0l0 0 0 0zm0 0l0 0 0 0zm0 0l0 0 0 0zm0 0l0 0 0 0zm0 0l-1 0 1 0zm-1 0l0 0 0 0zm0 0l0 1 0 -1zm0 1l0 0 0 0zm0 0l0 0 0 0zm0 0l0 0 0 0zm0 0l0 0 0 0zm0 0l0 0 0 0zm0 0l0 0 0 0zm0 0l0 0 0 0zm1 -1l0 0 0 0 0 0zm0 0l0 0 0 0 0 0zm0 0l1 -1 0 0 -1 1zm1 -1l0 0 0 0 0 0zm0 0l0 0 0 0 0 0zm-5 3l0 0 0 0zm0 0l0 0 0 0zm0 0l0 0 0 0zm0 0l0 0 0 0zm0 0l0 0 0 0zm0 0l0 0 0 0zm0 0c-1,0 -1,1 -2,1l2 -1zm-2 1l0 0 0 0zm0 0l0 0 0 0zm0 0l0 0 0 0zm0 0l0 0 0 0zm-13 6l0 0 0 0zm0 0l0 0 0 0zm0 0l0 0 0 0zm0 0l0 0 0 0zm0 0l-1 0c1,0 1,0 1,0zm-1 0l0 0 0 0zm0 0l0 0 0 0zm0 0l0 0 0 0zm0 0l0 0 0 0zm0 0l0 1 0 -1zm0 1l0 0 0 0zm0 0l0 0 0 0zm0 0l0 0 0 0zm0 0l0 0 0 0zm0 0l0 0 0 0zm-4 1l0 0 0 0zm-1 0l0 0 0 0 0 0zm0 0l0 0 0 0zm0 0l0 0 0 0zm0 0l0 0 0 0zm0 0l0 0 0 0z"/>
  </g>
  <polygon class="fil2" points="506,333 510,384 537,394 492,449 516,489 503,560 518,585 324,827 328,794 217,907 250,860 437,605 336,669 393,587 344,618 353,573 257,687 213,765 227,709 95,825 318,540 334,539 387,475 410,498 453,396 477,375 489,342 "/>
  <polygon class="fil2" points="740,483 710,573 740,558 719,631 734,652 673,804 666,764 547,905 659,711 500,835 592,711 706,527 "/>
 </g>
</svg>
